HIERARCHY
ROOT Hips
{
	OFFSET 0.00000 0.00000 0.00000
	CHANNELS 6 Xposition Yposition Zposition Zrotation Yrotation Xrotation 
	JOINT LHipJoint
	{
		OFFSET 0 0 0
		CHANNELS 3 Zrotation Yrotation Xrotation
		JOINT LeftUpLeg
		{
			OFFSET 1.62964 -1.40469 0.78906
			CHANNELS 3 Zrotation Yrotation Xrotation
			JOINT LeftLeg
			{
				OFFSET 2.29640 -6.30932 0.00000
				CHANNELS 3 Zrotation Yrotation Xrotation
				JOINT LeftFoot
				{
					OFFSET 2.29451 -6.30412 0.00000
					CHANNELS 3 Zrotation Yrotation Xrotation
					JOINT LeftToeBase
					{
						OFFSET 0.03611 -0.09921 1.56387
						CHANNELS 3 Zrotation Yrotation Xrotation
						End Site
						{
							OFFSET 0.00000 -0.00000 0.80291
						}
					}
				}
			}
		}
	}
	JOINT RHipJoint
	{
		OFFSET 0 0 0
		CHANNELS 3 Zrotation Yrotation Xrotation
		JOINT RightUpLeg
		{
			OFFSET -1.73712 -1.40469 0.78906
			CHANNELS 3 Zrotation Yrotation Xrotation
			JOINT RightLeg
			{
				OFFSET -2.28137 -6.26801 0.00000
				CHANNELS 3 Zrotation Yrotation Xrotation
				JOINT RightFoot
				{
					OFFSET -2.28681 -6.28298 0.00000
					CHANNELS 3 Zrotation Yrotation Xrotation
					JOINT RightToeBase
					{
						OFFSET -0.15927 -0.43759 1.61103
						CHANNELS 3 Zrotation Yrotation Xrotation
						End Site
						{
							OFFSET -0.00000 -0.00000 0.84630
						}
					}
				}
			}
		}
	}
	JOINT LowerBack
	{
		OFFSET 0 0 0
		CHANNELS 3 Zrotation Yrotation Xrotation
		JOINT Spine
		{
			OFFSET -0.04227 2.04338 -0.00225
			CHANNELS 3 Zrotation Yrotation Xrotation
			JOINT Spine1
			{
				OFFSET -0.02148 2.04482 -0.04273
				CHANNELS 3 Zrotation Yrotation Xrotation
				JOINT Neck
				{
					OFFSET 0 0 0
					CHANNELS 3 Zrotation Yrotation Xrotation
					JOINT Neck1
					{
						OFFSET 0.09180 1.44629 0.19359
						CHANNELS 3 Zrotation Yrotation Xrotation
						JOINT Head
						{
							OFFSET 0.00887 1.40645 0.14750
							CHANNELS 3 Zrotation Yrotation Xrotation
							End Site
							{
								OFFSET -0.00669 1.50671 0.03707
							}
						}
					}
				}
				JOINT LeftShoulder
				{
					OFFSET 0 0 0
					CHANNELS 3 Zrotation Yrotation Xrotation
					JOINT LeftArm
					{
						OFFSET 2.17674 1.86763 -0.06520
						CHANNELS 3 Zrotation Yrotation Xrotation
						JOINT LeftForeArm
						{
							OFFSET 4.65776 -0.00000 0.00000
							CHANNELS 3 Zrotation Yrotation Xrotation
							JOINT LeftHand
							{
								OFFSET 3.55539 -0.00000 0.00000
								CHANNELS 3 Zrotation Yrotation Xrotation
								JOINT LeftFingerBase
								{
									OFFSET 0 0 0
									CHANNELS 3 Zrotation Yrotation Xrotation
									JOINT LeftHandIndex1
									{
										OFFSET 0.70726 -0.00000 0.00000
										CHANNELS 3 Zrotation Yrotation Xrotation
										End Site
										{
											OFFSET 0.57022 -0.00000 0.00000
										}
									}
								}
								JOINT LThumb
								{
									OFFSET 0 0 0
									CHANNELS 3 Zrotation Yrotation Xrotation
									End Site
									{
										OFFSET 0.57892 -0.00000 0.57892
									}
								}
							}
						}
					}
				}
				JOINT RightShoulder
				{
					OFFSET 0 0 0
					CHANNELS 3 Zrotation Yrotation Xrotation
					JOINT RightArm
					{
						OFFSET -2.80694 1.55459 -0.32496
						CHANNELS 3 Zrotation Yrotation Xrotation
						JOINT RightForeArm
						{
							OFFSET -4.71925 -0.00000 -0.00000
							CHANNELS 3 Zrotation Yrotation Xrotation
							JOINT RightHand
							{
								OFFSET -3.56990 -0.00000 0.00000
								CHANNELS 3 Zrotation Yrotation Xrotation
								JOINT RightFingerBase
								{
									OFFSET 0 0 0
									CHANNELS 3 Zrotation Yrotation Xrotation
									JOINT RightHandIndex1
									{
										OFFSET -0.50776 -0.00000 0.00000
										CHANNELS 3 Zrotation Yrotation Xrotation
										End Site
										{
											OFFSET -0.40937 -0.00000 0.00000
										}
									}
								}
								JOINT RThumb
								{
									OFFSET 0 0 0
									CHANNELS 3 Zrotation Yrotation Xrotation
									End Site
									{
										OFFSET -0.41562 -0.00000 0.41562
									}
								}
							}
						}
					}
				}
			}
		}
	}
}
MOTION
Frames: 13
Frame Time: .0083333
14.5218 14.9319 18.3424 166.8850 -6.8963 -174.3400 0.0000 0.0000 0.0000 18.1322 -12.2569 -52.2432 1.6688 8.1392 23.1376 -0.9065 21.9550 7.3736 0.3924 -4.0223 -11.1393 0.0000 0.0000 0.0000 8.0900 6.9326 1.1210 -4.9638 -13.3430 40.6662 -6.1892 -1.6207 -47.9357 -4.5571 12.8670 -38.8727 3.0611 0.7456 -18.8800 -0.9306 0.3831 3.5378 -2.6842 0.4975 14.7447 -1.9420 6.1634 -0.6638 -1.5175 7.8784 16.5557 0.1721 3.2889 5.0745 -0.0000 0.0000 0.0000 -84.4995 9.0377 6.4895 10.5366 -17.5745 -1.6332 -0.0000 -0.0000 7.0675 21.1227 -15.8489 -6.0227 -7.1250 0.0000 -0.0000 -4.3998 13.0894 3.2990 -0.0000 0.0000 0.0000 81.4457 -9.0189 13.8521 -24.6994 35.8952 -8.1130 0.0000 -0.0000 -4.0556 -14.1718 -55.6538 11.7767 7.1250 -0.0000 -0.0000 77.2308 -77.0765 -63.9955
14.4420 14.9039 18.2670 166.8110 -6.7307 -174.5310 0.0000 0.0000 0.0000 18.1319 -12.3918 -51.6758 1.5859 7.9443 22.5452 -0.8702 22.1136 7.9649 0.3332 -3.7099 -10.2620 0.0000 0.0000 0.0000 7.7752 6.8917 1.6883 -4.9734 -13.3538 40.7076 -6.2341 -1.5818 -48.1010 -4.6150 12.9367 -39.1319 3.0938 0.7890 -18.6852 -0.9701 0.4450 3.5888 -2.7280 0.5308 14.6933 -1.7806 6.1023 -0.6828 -1.5291 7.7827 16.6785 0.1409 3.2443 5.1223 0.0000 -0.0000 0.0000 -84.3721 9.2671 6.3302 10.4663 -17.4657 -1.6121 -0.0000 -0.0000 6.9777 20.8566 -15.8882 -5.9545 -7.1250 0.0000 -0.0000 -4.5805 13.0793 3.4363 0.0000 -0.0000 0.0000 81.3261 -8.7697 13.6549 -24.4935 35.6818 -7.9926 0.0000 -0.0000 -4.0236 -13.7245 -55.4761 11.3769 7.1250 -0.0000 -0.0000 76.4758 -76.8911 -63.0615
14.3642 14.8737 18.1928 166.8480 -6.6891 -174.7480 0.0000 0.0000 0.0000 18.3199 -12.6474 -51.1443 1.5017 7.7402 21.9278 -0.8617 22.3949 8.3950 0.2873 -3.4471 -9.5260 0.0000 0.0000 0.0000 7.6350 6.7983 2.4154 -4.9353 -13.3105 40.5423 -6.2738 -1.5823 -48.2557 -4.8166 13.1742 -40.0243 3.1808 0.7199 -18.4243 -0.9314 0.3343 3.6555 -2.7669 0.4851 14.6071 -1.8577 6.1203 -0.7031 -1.4619 7.7998 16.7261 0.1757 3.2492 5.1346 -0.0000 -0.0000 0.0000 -84.4684 9.5053 5.6451 10.3774 -17.3278 -1.5855 -0.0000 -0.0000 7.3340 20.9823 -16.1056 -6.0728 -7.1250 0.0000 -0.0000 -4.5080 12.8352 3.4047 -0.0000 -0.0000 0.0000 81.0766 -8.5505 14.1437 -25.0534 36.2586 -8.3215 0.0000 -0.0000 -3.8137 -11.7910 -54.7794 9.6777 7.1250 -0.0000 -0.0000 73.8660 -76.0668 -59.6494
14.2839 14.8419 18.1238 167.0680 -6.6459 -174.8920 0.0000 0.0000 0.0000 18.7513 -12.8311 -50.7987 1.4407 7.5883 21.4703 -0.9442 22.9550 8.2333 0.1549 -2.5357 -6.9886 0.0000 0.0000 0.0000 7.6913 6.8222 2.9905 -4.9232 -13.2967 40.4897 -6.2262 -1.4125 -48.0243 -4.6573 12.9872 -39.3206 3.5056 0.7582 -18.1358 -0.9019 0.3148 3.6578 -2.9232 0.4994 14.4381 -1.7623 6.1283 -0.6066 -1.5013 7.7914 16.8711 0.1465 3.2375 5.1687 0.0000 0.0000 0.0000 -84.3975 9.9424 5.3994 10.3644 -17.3075 -1.5816 -0.0000 -0.0000 7.6354 21.5297 -16.5002 -6.3932 -7.1250 0.0000 -0.0000 -4.1652 12.3516 3.1865 0.0000 0.0000 0.0000 80.9518 -8.4363 14.3562 -25.5102 36.7210 -8.5931 0.0000 -0.0000 -3.0807 -10.8722 -57.3302 9.1842 7.1250 -0.0000 -0.0000 84.2798 -75.9451 -69.6849
14.1930 14.8141 18.0470 166.9890 -6.1520 -174.7360 0.0000 0.0000 0.0000 18.9505 -12.7909 -50.4500 1.3855 7.4478 21.0488 -1.0875 23.7178 7.7418 0.0520 -1.4721 -4.0487 0.0000 0.0000 0.0000 7.2178 7.1976 3.0398 -4.9924 -13.3752 40.7897 -6.2335 -1.2603 -48.0121 -4.7132 13.0534 -39.5687 3.6505 0.9370 -18.2590 -0.9488 0.5223 3.6648 -2.9969 0.6119 14.5414 -1.7631 6.1972 -0.5395 -1.5960 7.8849 16.9649 0.1207 3.2693 5.1907 0.0000 -0.0000 0.0000 -84.3273 10.2052 5.2661 10.3438 -17.2755 -1.5755 -0.0000 -0.0000 7.6448 21.5987 -16.8195 -6.5351 -7.1250 0.0000 -0.0000 -4.1391 12.0054 3.1962 0.0000 -0.0000 0.0000 80.8016 -8.0718 14.4120 -25.4691 36.6796 -8.5685 0.0000 -0.0000 -3.0762 -11.6024 -57.8061 9.8566 7.1250 -0.0000 -0.0000 86.2726 -76.1892 -71.9641
14.1069 14.7849 17.9763 167.0280 -5.9555 -174.7690 0.0000 0.0000 0.0000 19.0232 -12.8411 -50.1938 1.3521 7.3609 20.7891 -1.0594 23.9704 8.3494 0.0843 -1.8732 -5.1552 0.0000 0.0000 0.0000 6.9639 7.2639 3.2789 -5.0403 -13.4290 40.9964 -6.2059 -1.7404 -48.0341 -5.1209 13.5186 -41.3423 3.7403 0.8473 -18.1010 -0.8074 0.3651 3.8184 -2.9354 0.5435 14.6147 -2.3645 6.3327 -0.8145 -1.5160 8.1217 16.8412 0.2591 3.3624 5.1717 0.0000 0.0000 0.0000 -84.6438 10.1022 4.4045 10.2428 -17.1184 -1.5456 -0.0000 -0.0000 7.7523 21.4236 -16.0891 -6.2059 -7.1250 0.0000 -0.0000 -4.2117 12.7996 3.1828 0.0000 0.0000 0.0000 80.2820 -7.2472 14.9408 -24.9714 36.1747 -8.2730 0.0000 -0.0000 -4.6079 -14.7134 -56.4844 12.3492 7.1250 -0.0000 -0.0000 80.9422 -77.3217 -67.8922
14.0201 14.7546 17.8943 167.1690 -5.9828 -174.9230 0.0000 0.0000 0.0000 19.1526 -13.0480 -49.9058 1.3139 7.2603 20.4889 -0.9448 23.9255 9.3923 0.2170 -2.9990 -8.2760 0.0000 0.0000 0.0000 6.8842 7.1187 3.8721 -5.0318 -13.4195 40.9600 -6.2161 -2.0973 -48.1730 -5.4244 13.8464 -42.6254 3.9740 0.9857 -17.9526 -0.9152 0.5162 3.8690 -3.1452 0.6402 14.6039 -1.9348 6.1756 -0.7759 -1.5591 7.8748 17.0559 0.1681 3.2535 5.2505 -0.0000 0.0000 0.0000 -84.1343 10.3651 4.6975 10.2137 -17.0731 -1.5371 -0.0000 -0.0000 7.4761 21.0067 -14.1847 -5.3756 -7.1250 0.0000 -0.0000 -4.3960 14.8613 3.1308 -0.0000 0.0000 0.0000 80.5431 -7.1794 14.8828 -25.5226 36.7334 -8.6005 0.0000 -0.0000 -4.3956 -10.9898 -60.1443 9.5602 7.1250 -0.0000 -0.0000 95.5000 -75.6873 -80.9678
13.9281 14.7226 17.8147 167.1950 -5.7565 -174.8680 0.0000 0.0000 0.0000 19.2408 -13.0474 -49.7206 1.2846 7.1822 20.2563 -0.8895 23.9061 9.8812 0.2899 -3.4627 -9.5696 0.0000 0.0000 0.0000 6.5375 7.1440 4.2277 -5.0351 -13.4232 40.9741 -6.3028 -1.6571 -48.3890 -5.4240 13.8460 -42.6239 4.1391 1.1160 -17.9642 -1.0091 0.6644 3.9065 -3.3018 0.7306 14.6746 -1.7103 6.1099 -0.8062 -1.5510 7.7696 17.1556 0.1323 3.2125 5.2948 0.0000 -0.0000 0.0000 -83.8583 10.6495 4.8683 10.2721 -17.1641 -1.5543 -0.0000 -0.0000 7.0721 20.5251 -13.1206 -4.8576 -7.1250 0.0000 -0.0000 -4.6840 16.0346 3.2189 0.0000 -0.0000 0.0000 80.6266 -7.0085 14.8413 -25.5580 36.7689 -8.6217 0.0000 -0.0000 -4.3940 -13.9297 -56.9571 11.7450 7.1250 -0.0000 -0.0000 82.9513 -77.0386 -69.5702
13.8304 14.6879 17.7461 167.1260 -5.1781 -174.4970 0.0000 0.0000 0.0000 19.2861 -12.6714 -49.7743 1.2676 7.1363 20.1197 -0.8661 23.8814 10.0658 0.3174 -3.6217 -10.0148 0.0000 0.0000 0.0000 5.8971 7.4811 4.0188 -5.0600 -13.4510 41.0811 -6.3226 -1.0615 -48.3076 -5.3266 13.7424 -42.2153 4.2723 1.3327 -18.0744 -1.1022 0.9330 3.8755 -3.4019 0.8717 14.7364 -1.6864 6.0680 -0.8573 -1.5302 7.7181 17.0879 0.1335 3.1962 5.2822 -0.0000 0.0000 0.0000 -83.7104 10.7338 4.8863 10.2587 -17.1432 -1.5503 -0.0000 -0.0000 6.7479 20.7980 -13.4590 -5.0520 -7.1250 0.0000 -0.0000 -4.5087 15.6503 3.1351 -0.0000 0.0000 0.0000 80.5515 -6.6534 15.1676 -25.8616 37.0717 -8.8041 0.0000 -0.0000 -4.6853 -14.5130 -54.0798 11.8396 7.1250 -0.0000 -0.0000 70.3247 -76.9698 -57.2983
13.7379 14.6573 17.6777 167.1800 -4.9315 -174.2840 0.0000 0.0000 0.0000 19.2854 -12.4682 -49.8923 1.2613 7.1191 20.0687 -0.7571 23.6261 10.7645 0.3991 -4.0562 -11.2348 0.0000 0.0000 0.0000 5.5224 7.5958 4.0676 -5.0456 -13.4350 41.0195 -6.2710 -0.8710 -48.0564 -5.2368 13.6456 -41.8357 4.3650 1.3695 -17.9793 -1.0777 0.9613 3.8924 -3.4185 0.8909 14.7036 -1.9235 6.0828 -0.9114 -1.4737 7.7551 16.9653 0.1907 3.2110 5.2419 0.0000 0.0000 0.0000 -83.7103 10.8600 4.7856 10.2682 -17.1581 -1.5531 -0.0000 -0.0000 6.3917 21.2281 -13.7573 -5.2777 -7.1250 0.0000 -0.0000 -4.2259 15.2906 2.9701 0.0000 0.0000 0.0000 80.3018 -6.3890 15.7815 -26.4930 37.6914 -9.1875 0.0000 -0.0000 -4.8728 -13.4995 -54.4663 11.0542 7.1250 -0.0000 -0.0000 72.2031 -76.6576 -58.7253
13.6466 14.6288 17.5922 167.1120 -4.7825 -174.0720 0.0000 0.0000 0.0000 19.1616 -12.4064 -49.9480 1.2532 7.0971 20.0033 -0.7616 23.7776 10.8838 0.2688 -3.3352 -9.2135 0.0000 0.0000 0.0000 5.0390 7.5566 4.3163 -4.9815 -13.3630 40.7429 -6.2362 -0.7871 -47.8986 -5.2110 13.6175 -41.7264 4.1855 1.3211 -18.0967 -1.0272 0.9252 3.9602 -3.2693 0.8597 14.8461 -2.1683 6.0414 -0.9908 -1.4739 7.7230 16.8606 0.2293 3.1860 5.2135 -0.0000 -0.0000 0.0000 -83.8240 11.0443 4.5108 10.3488 -17.2832 -1.5770 -0.0000 -0.0000 5.9366 20.9709 -13.7122 -5.1914 -7.1250 0.0000 -0.0000 -4.4002 15.3649 3.0863 -0.0000 -0.0000 0.0000 79.9700 -6.0972 16.4306 -27.1510 38.3228 -9.5926 0.0000 -0.0000 -4.9340 -13.0183 -56.2665 10.8838 7.1250 -0.0000 -0.0000 79.9031 -76.6926 -66.1766
13.5492 14.5970 17.5087 167.2680 -4.8572 -173.9680 0.0000 0.0000 0.0000 19.1613 -12.4611 -50.1624 1.2809 7.1722 20.2266 -0.7645 23.8549 10.9396 0.1740 -2.6873 -7.4092 0.0000 0.0000 0.0000 4.8056 7.3160 4.6720 -4.9454 -13.3220 40.5861 -6.2490 -0.5786 -47.8955 -5.2159 13.6228 -41.7471 4.2697 1.2822 -17.9307 -0.9911 0.8553 3.9522 -3.2979 0.8303 14.7302 -2.0525 5.8874 -0.9692 -1.6139 7.5225 16.8166 0.1573 3.0869 5.2064 0.0000 0.0000 0.0000 -83.7007 11.2574 4.3210 10.3835 -17.3372 -1.5873 -0.0000 -0.0000 5.3770 20.3374 -13.7003 -5.0170 -7.1250 0.0000 -0.0000 -4.8341 15.4416 3.3847 0.0000 0.0000 0.0000 79.8077 -5.7302 16.8320 -27.2733 38.4385 -9.6685 0.0000 -0.0000 -5.2190 -13.9195 -54.8998 11.4623 7.1250 -0.0000 -0.0000 73.9676 -76.8903 -60.6547
13.4514 14.5623 17.4224 167.2680 -4.6821 -173.7150 0.0000 0.0000 0.0000 19.0175 -12.2767 -50.3449 1.2988 7.2202 20.3694 -0.6942 23.8287 11.5163 0.2406 -3.1567 -8.7153 0.0000 0.0000 0.0000 4.4011 7.4136 4.8111 -4.9765 -13.3573 40.7210 -6.2708 -0.1680 -47.8781 -5.1757 13.5790 -41.5763 4.1935 1.3216 -17.8640 -1.0522 0.9389 3.8930 -3.2984 0.8621 14.6264 -2.0231 5.8926 -0.9081 -1.4992 7.5081 16.8020 0.1851 3.0905 5.1879 0.0000 -0.0000 0.0000 -83.4678 11.4558 4.0891 10.3587 -17.2987 -1.5799 -0.0000 -0.0000 5.1499 19.8505 -14.0345 -5.0034 -7.1250 0.0000 -0.0000 -5.1795 15.1388 3.6623 0.0000 -0.0000 0.0000 79.7538 -5.5779 17.2736 -27.4605 38.6148 -9.7852 0.0000 -0.0000 -5.6305 -14.9748 -51.5267 11.8273 7.1250 -0.0000 -0.0000 59.6684 -76.3798 -46.9703
